<svg data-v-423bf9ae="" xmlns="http://www.w3.org/2000/svg" viewBox="0 0 428 90" class="iconLeft"><!----><!----><!----><g data-v-423bf9ae="" id="71681378-f9ae-4f52-bbb2-cbf51c268a0c" fill="white" transform="matrix(4.559270569581267,0,0,4.559270569581267,124.2933889696258,-3.191489377691269)"><path d="M1.97 4.58L1.97 5.74L5.45 5.74L5.45 11.56C5.45 12.78 4.87 13.36 3.86 13.36C2.83 13.36 2.41 12.73 2.23 11.94L0.94 12.21C1.23 13.65 2.27 14.52 3.85 14.52C5.60 14.52 6.80 13.45 6.80 11.77L6.80 4.58ZM15.92 14.35L15.92 13.19L11.37 13.19L11.37 4.58L10.01 4.58L10.01 14.35ZM20.94 14.52C23.17 14.52 24.43 13.38 24.43 11.56C24.43 10.25 23.74 9.20 21.90 8.88L20.85 8.69C19.54 8.47 19.11 7.97 19.11 7.13C19.11 6.09 19.80 5.56 21.04 5.56C22.19 5.56 22.90 6.02 23.44 6.71L24.33 5.87C23.67 4.96 22.60 4.41 21.06 4.41C19.01 4.41 17.74 5.36 17.74 7.17C17.74 8.44 18.37 9.55 20.26 9.86L21.34 10.04C22.60 10.25 23.06 10.72 23.06 11.62C23.06 12.73 22.33 13.37 21 13.37C19.88 13.37 19.07 12.94 18.31 12.01L17.39 12.84C18.13 13.83 19.22 14.52 20.94 14.52ZM31.01 14.35L32.31 14.35L32.31 7.13L31.01 7.13L31.01 12.08C31.01 12.99 30.17 13.41 29.32 13.41C28.27 13.41 27.71 12.80 27.71 11.55L27.71 7.13L26.40 7.13L26.40 11.77C26.40 13.52 27.40 14.52 28.88 14.52C30.07 14.52 30.65 13.87 30.95 13.15L31.01 13.15ZM36.19 14.35L36.19 9.39C36.19 8.48 37.03 8.06 37.88 8.06C38.93 8.06 39.49 8.68 39.49 9.93L39.49 14.35L40.80 14.35L40.80 9.70C40.80 7.95 39.80 6.96 38.32 6.96C37.13 6.96 36.55 7.60 36.25 8.33L36.19 8.33L36.19 7.13L34.89 7.13L34.89 14.35ZM47.87 14.35L49.17 14.35L49.17 3.99L47.87 3.99L47.87 8.33L47.80 8.33C47.36 7.45 46.63 6.96 45.58 6.96C43.86 6.96 42.78 8.33 42.78 10.74C42.78 13.15 43.86 14.52 45.58 14.52C46.63 14.52 47.36 14.03 47.80 13.15L47.87 13.15ZM46.12 13.41C44.88 13.41 44.17 12.59 44.17 11.34L44.17 10.14C44.17 8.89 44.88 8.06 46.12 8.06C47.05 8.06 47.87 8.55 47.87 9.48L47.87 12.00C47.87 12.92 47.05 13.41 46.12 13.41ZM58.16 14.35L58.16 13.27L57.19 13.27L57.19 9.45C57.19 7.87 56.10 6.96 54.35 6.96C52.85 6.96 51.90 7.64 51.52 8.40L52.35 9.06C52.72 8.41 53.30 8.02 54.25 8.02C55.31 8.02 55.89 8.54 55.89 9.56L55.89 10.21L54.42 10.21C52.26 10.21 51.28 10.96 51.28 12.33C51.28 13.69 52.25 14.52 53.73 14.52C54.89 14.52 55.61 14 55.92 13.16L55.99 13.16C56.07 13.86 56.45 14.35 57.30 14.35ZM54.04 13.50C53.17 13.50 52.63 13.13 52.63 12.43L52.63 12.14C52.63 11.47 53.20 11.10 54.43 11.10L55.89 11.10L55.89 12.22C55.89 12.95 55.12 13.50 54.04 13.50ZM64.05 10.15L63.06 12.77L62.99 12.77L61.99 10.15L60.80 7.13L59.44 7.13L62.36 14.22L61.61 16.07L59.93 16.07L59.93 17.15L61.07 17.15C62.19 17.15 62.65 16.72 63 15.85L66.56 7.13L65.24 7.13Z"></path></g><!----><g data-v-423bf9ae="" id="070aa76d-517e-4992-9a2b-b8931974a585" transform="matrix(1.20643446441337,0,0,1.20643446441337,-5.321723220668503,-14.621717855546791)" stroke="none" fill="white"><path d="M5 20.1l7.4-7.4 26.1 26.1 7.5 7.4-7.5 7.4-26.1 26.1L5 72.3l26.1-26.1L5 20.1zm90 67.2V75.7H48.8v11.6H95z"></path></g><!----></svg>