<?xml version="1.0" standalone="no"?>
<!DOCTYPE svg PUBLIC "-//W3C//DTD SVG 20010904//EN"
 "http://www.w3.org/TR/2001/REC-SVG-20010904/DTD/svg10.dtd">
<svg version="1.0" xmlns="http://www.w3.org/2000/svg"
 width="487.000000pt" height="487.000000pt" viewBox="0 0 487.000000 487.000000"
 preserveAspectRatio="xMidYMid meet">
<metadata>
Created by potrace 1.11, written by Peter Selinger 2001-2013
</metadata>
<g transform="translate(0.000000,487.000000) scale(0.100000,-0.100000)"
fill="#000000" stroke="none">
<path d="M2228 4570 c-82 -9 -168 -22 -215 -33 -152 -37 -314 -85 -378 -114
-44 -19 -102 -45 -130 -57 -77 -35 -242 -133 -320 -190 -257 -189 -466 -419
-615 -678 -112 -197 -189 -400 -246 -651 -51 -224 -51 -620 0 -844 72 -320
197 -608 360 -828 309 -421 715 -700 1206 -830 215 -57 315 -69 545 -69 230 0
330 12 546 70 492 130 893 406 1206 830 134 182 260 446 318 668 71 267 78
320 78 581 0 261 -7 314 -78 581 -137 522 -514 1006 -999 1284 -195 112 -363
176 -649 247 -127 31 -471 49 -629 33z m447 -126 c1 -21 -3 -45 -8 -52 -5 -6
-13 -48 -17 -91 -5 -43 -13 -87 -19 -97 -23 -43 -94 -223 -117 -298 -14 -45
-29 -94 -34 -111 -5 -16 -14 -60 -19 -97 -5 -37 -14 -82 -20 -100 -5 -18 -19
-85 -31 -148 -12 -63 -25 -133 -30 -155 -5 -22 -12 -65 -16 -95 -3 -30 -11
-61 -17 -68 -6 -7 -12 -43 -13 -80 -2 -37 -7 -87 -13 -112 -42 -204 -44 -244
-15 -271 26 -24 29 -24 174 11 158 38 265 57 390 70 121 12 202 29 201 43 0 4
-3 17 -5 30 -2 12 -9 58 -16 102 -6 44 -17 103 -25 130 -7 28 -16 76 -19 109
-3 32 -11 77 -18 100 -6 22 -12 50 -13 61 -4 50 -18 116 -26 121 -5 3 -7 9 -4
13 2 5 -3 48 -12 97 -20 107 -22 150 -26 368 -1 108 2 171 8 173 18 6 44 -60
49 -122 7 -103 26 -226 41 -269 8 -22 15 -60 15 -83 0 -23 6 -62 14 -85 8 -24
19 -68 25 -98 5 -30 19 -98 31 -150 22 -98 35 -168 44 -230 4 -30 13 -77 43
-235 8 -44 18 -52 73 -59 63 -8 448 -8 462 0 6 4 6 10 -1 17 -6 6 -11 19 -11
28 0 9 -7 22 -15 29 -8 7 -49 65 -91 129 -42 64 -90 135 -106 159 -16 23 -71
124 -122 225 -51 100 -97 191 -103 202 -15 27 -51 124 -59 157 -3 15 -12 32
-20 39 -8 6 -14 20 -14 30 0 10 -4 20 -9 23 -4 3 -14 27 -21 53 -7 27 -27 75
-43 108 -17 33 -34 76 -39 95 -5 19 -13 49 -18 65 -40 140 -49 177 -55 223 -6
48 -5 52 13 52 29 0 79 -66 91 -119 5 -25 24 -79 40 -120 17 -41 31 -78 31
-84 0 -6 26 -65 59 -131 74 -153 91 -191 91 -204 0 -6 13 -37 29 -69 26 -52
52 -108 83 -183 25 -59 33 -76 48 -100 9 -14 27 -50 40 -80 14 -30 49 -95 79
-145 30 -49 60 -103 67 -120 35 -83 182 -290 213 -299 51 -16 196 -35 259 -34
109 0 192 -12 192 -27 0 -27 -138 -37 -288 -21 l-83 8 7 -28 c4 -16 15 -43 25
-60 10 -17 16 -34 12 -37 -14 -15 -32 -5 -52 27 -27 43 -88 85 -143 98 -45 11
-571 13 -588 3 -7 -4 -6 -13 0 -26 6 -11 9 -23 6 -28 -3 -4 4 -43 14 -87 11
-43 20 -88 20 -100 0 -11 4 -24 9 -30 5 -5 14 -29 19 -54 6 -25 16 -63 22 -85
6 -22 18 -68 26 -103 7 -35 18 -72 24 -82 14 -26 13 -60 -2 -60 -17 0 -53 55
-67 100 -30 98 -54 169 -76 220 -13 32 -26 69 -29 84 -8 45 -36 138 -57 191
l-19 50 -48 -2 c-133 -7 -163 -12 -237 -36 -44 -14 -118 -36 -165 -48 -157
-40 -215 -57 -284 -83 -68 -25 -116 -59 -116 -81 0 -19 34 -45 87 -65 26 -10
74 -30 105 -44 31 -14 61 -26 66 -26 5 0 46 -22 91 -50 45 -27 86 -50 91 -50
9 0 133 -69 275 -154 39 -22 82 -48 97 -56 14 -8 66 -40 113 -70 48 -30 102
-64 121 -75 93 -56 132 -86 198 -150 80 -78 120 -129 131 -162 11 -39 -12 -27
-129 66 -95 75 -329 241 -341 241 -5 0 -244 146 -335 205 -36 23 -88 53 -116
68 -29 14 -73 40 -100 57 -26 16 -53 30 -58 30 -6 0 -22 9 -36 20 -72 56 -116
-8 -70 -102 11 -23 20 -47 20 -52 0 -6 7 -24 15 -40 16 -30 31 -87 41 -154 2
-20 11 -71 19 -112 30 -166 38 -383 19 -570 -14 -145 -26 -203 -64 -320 -41
-126 -44 -143 -23 -169 38 -47 146 -52 318 -15 247 52 292 63 365 89 109 38
110 38 110 27 0 -9 -119 -92 -133 -92 -4 0 -30 -11 -59 -24 -29 -13 -91 -34
-138 -46 -47 -12 -105 -28 -130 -36 -54 -16 -155 -19 -310 -10 -92 5 -118 10
-133 24 -18 18 -18 20 2 58 11 21 22 50 24 64 13 71 17 102 22 175 3 44 7 91
10 105 15 73 21 415 10 550 -7 85 -24 191 -33 204 -4 6 -7 20 -8 31 -7 110
-79 338 -116 367 -13 10 -26 18 -29 18 -15 0 -22 -41 -28 -170 -4 -75 -11
-141 -14 -148 -17 -26 -31 -303 -30 -546 2 -142 -2 -266 -7 -275 -10 -18 -8
-23 -34 74 -49 175 -61 249 -82 484 -2 29 -7 57 -10 62 -3 5 -5 158 -5 340 0
182 -3 337 -5 344 -9 23 -60 27 -121 10 -57 -17 -213 -77 -245 -95 -10 -6 -24
-10 -32 -10 -16 0 -145 -50 -212 -81 -22 -10 -44 -19 -48 -19 -5 0 -63 -26
-130 -59 -66 -32 -132 -64 -146 -70 -32 -14 -53 -27 -117 -74 -57 -41 -68 -71
-35 -99 9 -8 67 -39 127 -68 239 -115 493 -310 668 -512 65 -74 86 -106 147
-224 29 -54 61 -109 71 -122 10 -13 25 -47 35 -75 9 -29 30 -78 46 -110 29
-59 30 -89 0 -65 -8 7 -69 80 -135 163 -193 241 -426 488 -570 605 -34 28 -84
69 -112 91 -55 44 -301 209 -311 209 -4 0 -30 11 -59 25 -29 14 -74 28 -101
30 -27 2 -75 13 -106 25 -79 29 -77 51 7 79 22 7 51 20 65 29 14 9 41 24 60
33 20 9 74 42 122 73 47 31 90 56 96 56 6 0 41 18 79 39 37 22 91 47 118 56
28 9 118 50 200 91 83 41 157 74 166 74 8 0 32 10 54 21 22 12 87 42 144 66
162 67 167 78 95 183 -113 165 -310 332 -633 533 -34 21 -69 50 -78 63 -15 23
-15 27 0 41 12 13 21 14 48 4 17 -6 47 -11 65 -11 56 0 262 97 414 195 36 23
99 64 140 90 104 67 176 121 240 180 31 27 93 82 139 120 75 63 153 149 252
275 46 58 83 126 105 192 15 47 41 92 100 176 22 32 39 22 39 -24z"/>
<path d="M2195 3654 c-22 -15 -71 -53 -110 -84 -68 -56 -214 -159 -245 -173
-8 -4 -28 -16 -45 -26 -16 -11 -36 -20 -43 -20 -7 -1 -28 -12 -45 -25 -18 -14
-52 -34 -77 -45 -25 -11 -76 -38 -115 -60 -65 -36 -70 -41 -70 -72 0 -36 -3
-34 165 -147 80 -53 210 -166 243 -210 65 -87 107 -147 107 -153 0 -9 48 -29
70 -29 30 0 51 42 60 122 10 83 53 332 69 393 32 128 65 253 91 345 17 58 31
128 32 155 3 47 1 50 -22 53 -14 1 -42 -9 -65 -24z"/>
</g>
</svg>
